<?xml version="1.0" encoding="utf-8"?>
<!-- Generator: Adobe Illustrator 16.0.0, SVG Export Plug-In . SVG Version: 6.00 Build 0)  -->
<!DOCTYPE svg PUBLIC "-//W3C//DTD SVG 1.1//EN" "http://www.w3.org/Graphics/SVG/1.1/DTD/svg11.dtd">
<svg version="1.1" id="Layer_1" xmlns="http://www.w3.org/2000/svg" xmlns:xlink="http://www.w3.org/1999/xlink" x="0px" y="0px"
	 width="40.248px" height="29.026px" viewBox="0 0 40.248 29.026" enable-background="new 0 0 40.248 29.026" xml:space="preserve">
<g>
	<path fill="#999999" d="M-59.291,20.133c0.817,1.295,2.042,1.295,3.811,0c1.227,3.11,6.808,13.48,6.808,13.48
		s-3.625,1.472-8.799-2.156c-3.349-2.349-10.026-9.413-13.984-19.324c-2.154-5.396-2.842-11.275-2.842-17.947
		c0.136-5.833,2.62-7.496,5.206-8.272l4.627,14.646c0,0-3.233,1.059-1.872,5.207C-66.335,5.766-65.09,13.15-59.291,20.133z"/>
	<path fill="#999999" d="M-67.05-14.605c0,0,3.947-1.426,5.989,2.593c2.042,4.018,3.539,10.24-1.361,12.184
		C-63.783-3.587-67.05-14.605-67.05-14.605z"/>
	<path fill="#999999" d="M-53.304,19.287l7.083,13.289c0,0,4.083-2.982,2.45-5.962c-1.633-2.981-3.535-6.712-3.535-6.712
		S-49.229,16.979-53.304,19.287z"/>
</g>
<path fill="#999999" d="M36.099,0H4.145C1.302,0.008,0,1.304,0,4.153v20.722c0,2.856,1.302,4.145,4.145,4.151h31.954
	c2.842-0.006,4.149-1.304,4.149-4.151V4.153C40.248,1.304,38.94,0,36.099,0z M36.938,1.961L20.36,13.311L3.672,1.961H36.938z
	 M36.099,27.066H4.145c-1.451,0-2.186-0.856-2.186-2.192V4.135l18.324,12.08l18-12.08v20.739
	C38.284,26.335,37.507,27.066,36.099,27.066z"/>
</svg>
