<?xml version="1.0" encoding="utf-8"?>
<!-- Generator: Adobe Illustrator 16.0.0, SVG Export Plug-In . SVG Version: 6.00 Build 0)  -->
<!DOCTYPE svg PUBLIC "-//W3C//DTD SVG 1.1//EN" "http://www.w3.org/Graphics/SVG/1.1/DTD/svg11.dtd">
<svg version="1.1" id="Layer_1" xmlns="http://www.w3.org/2000/svg" xmlns:xlink="http://www.w3.org/1999/xlink" x="0px" y="0px"
	 width="30.911px" height="48.76px" viewBox="0 0 30.911 48.76" enable-background="new 0 0 30.911 48.76" xml:space="preserve">
<g>
	<path fill="#999999" d="M15.006,34.984c0.817,1.295,2.042,1.295,3.811,0c1.227,3.11,6.808,13.48,6.808,13.48
		S22,49.937,16.826,46.308C13.477,43.959,6.8,36.896,2.842,26.984C0.688,21.589,0,15.709,0,9.037
		c0.136-5.833,2.62-7.496,5.206-8.272l4.627,14.646c0,0-3.233,1.059-1.872,5.207C7.961,20.617,9.206,28.001,15.006,34.984z"/>
	<path fill="#999999" d="M7.247,0.246c0,0,3.947-1.426,5.989,2.593c2.042,4.018,3.539,10.24-1.361,12.184
		C10.513,11.264,7.247,0.246,7.247,0.246z"/>
	<path fill="#999999" d="M20.992,34.138l7.083,13.289c0,0,4.083-2.982,2.45-5.962c-1.633-2.981-3.535-6.712-3.535-6.712
		S25.068,31.831,20.992,34.138z"/>
</g>
<path fill="#999999" d="M110.395,14.851H78.441c-2.843,0.008-4.145,1.304-4.145,4.153v20.722c0,2.856,1.302,4.145,4.145,4.151
	h31.954c2.842-0.006,4.149-1.304,4.149-4.151V19.004C114.544,16.155,113.237,14.851,110.395,14.851z M111.234,16.812l-16.578,11.35
	l-16.688-11.35H111.234z M110.395,41.917H78.441c-1.451,0-2.186-0.856-2.186-2.192V18.986l18.324,12.08l18-12.08v20.739
	C112.581,41.187,111.803,41.917,110.395,41.917z"/>
</svg>
