<?xml version="1.0" encoding="utf-8"?>
<!-- Generator: Adobe Illustrator 16.0.0, SVG Export Plug-In . SVG Version: 6.00 Build 0)  -->
<!DOCTYPE svg PUBLIC "-//W3C//DTD SVG 1.1//EN" "http://www.w3.org/Graphics/SVG/1.1/DTD/svg11.dtd">
<svg version="1.1" id="Layer_1" xmlns="http://www.w3.org/2000/svg" xmlns:xlink="http://www.w3.org/1999/xlink" x="0px" y="0px"
	 width="206.333px" height="96.667px" viewBox="0 0 206.333 96.667" enable-background="new 0 0 206.333 96.667"
	 xml:space="preserve">
<g>
	<rect x="-65.8" y="-39.335" fill="none" width="340.157" height="170.081"/>
	<g>
		<g>
			<path fill="#AAAAAA" d="M7.668,84.146c-0.967,0-1.859-0.225-2.603-0.67v-0.371c4.608-1.785,6.766-4.758,6.766-33.455
				c0-12.936-0.521-14.869-3.42-15.984l-1.934-0.744V29.8c3.123,0,5.056-0.669,5.056-4.46c0-11.301,6.096-16.356,14.943-16.356
				c7.435,0,12.267,3.643,12.267,8.625l-0.371,0.223c-1.636-2.676-5.576-3.866-9.219-3.866c-4.016,0-9.442,2.156-9.442,10.333v2.007
				c0,0.967-0.223,3.494-0.223,3.494h5.353c3.048,0,4.015-0.743,4.015-0.743c0.074,0.446,0.074,1.636,0.074,2.007
				c0,3.122-1.486,3.792-4.163,3.792c-0.595,0-4.312-0.074-4.98-0.074c-0.224,2.899-0.298,5.725-0.298,8.401
				c0,7.583,0.223,15.314,0.223,26.021C19.711,78.645,13.987,84.146,7.668,84.146z M35.9,48.982c0-16.951-1.709-19.256-1.784-19.256
				c1.265-0.372,2.454-0.669,3.644-0.669c3.346,0,6.319,1.784,6.319,4.758c0,7.881-0.372,16.802-0.372,22.304
				c0,3.344,0.075,7.805,3.718,7.805c1.486,0,2.825-1.039,2.825-1.039l0.297,0.223c0,0-1.859,4.609-8.252,4.609
				c-3.271,0-6.691-1.563-6.691-6.021C35.603,57.457,35.9,53.145,35.9,48.982z"/>
			<path fill="#AAAAAA" d="M56.512,49.725c0-5.502-0.074-11.301-0.074-16.802c0-6.84-0.074-20.742-1.562-22.229l0.224-0.297
				c9.367,0.074,9.738,3.345,9.738,12.192c0,5.798-0.743,11.895-0.743,11.895l0.224,0.074c0,0,2.899-5.874,11.969-5.874
				c8.476,0,13.68,7.509,13.68,16.951c0,12.937-7.063,22.453-21.857,22.453c-6.17,0-11.746-2.305-11.746-6.767
				C56.364,57.234,56.512,53.441,56.512,49.725z M81.045,47.346c0-6.839-2.899-13.902-8.028-13.902
				c-4.461,0-7.807,3.346-8.476,8.996c-0.372,3.196-0.372,6.69-0.372,10.187c0,6.467,0.224,12.043,4.981,12.043
				C77.18,64.667,81.045,55.895,81.045,47.346z"/>
			<path fill="#AAAAAA" d="M138.885,49.056c0-15.092-1.561-19.032-1.858-19.33c1.265-0.372,2.453-0.669,3.644-0.669
				c3.42,0,6.021,1.71,6.021,4.758c0,1.115-0.521,2.751-0.521,2.751l0.297,0.074c2.082-4.684,7.213-7.583,11.228-7.583
				c2.9,0,3.644,1.264,3.644,2.899c0,1.636-0.297,3.717-0.894,5.279l-0.37,0.148c-2.38-1.189-4.238-2.082-5.947-2.082
				c-5.799,0-7.436,6.022-7.436,14.275c0,14.646,1.563,17.321,1.71,17.396c-1.858,0.298-3.644,0.743-5.204,0.743
				c-2.751,0-4.685-1.114-4.685-5.725C138.513,57.531,138.885,53.145,138.885,49.056z"/>
			<path fill="#AAAAAA" d="M184.607,28.685c12.49,0,18.884,8.699,18.884,17.694c0,11.078-6.84,21.708-19.627,21.708
				c-12.49,0-18.884-9.146-18.884-18.81C164.98,38.647,171.747,28.685,184.607,28.685z M184.607,64.667
				c6.617,0,9.813-8.475,9.813-16.95c0-7.806-3.494-15.613-10.631-15.613c-6.617,0-9.74,7.955-9.74,15.91
				C174.049,56.416,177.543,64.667,184.607,64.667z"/>
		</g>
		<path fill="#DDDDDD" d="M101.985,40.599c3.313-5.561,7.788-10.236,14.161-12.836c3.06-1.248,7.478-2.214,11.209-0.723
			c3.142,1.254,5.147,3.709,6.207,7.231c1.121,3.736,1.078,8.442-0.062,11.752c-2.162,6.284-8.039,10.73-16.873,9.941
			c-4.032-0.358-7.354-1.573-10.364-3.071c0.549,6.187,2.364,10.524,4.881,14.644c2.442,3.998,5.53,7.506,8.979,10.547
			c5.023,4.431,11.125,8.375,18.801,10.485c1.201,0.328,2.326,0.634,4.037,0.843c1.451,0.178,3.056,0.438,3.135,1.748
			c0.093,1.545-1.84,2.53-3.193,2.832c-1.732,0.387-3.841-0.078-5.304-0.361c-3.397-0.654-6.375-1.762-9.101-2.953
			c-5.429-2.371-10.474-5.686-14.703-9.4c-4.258-3.738-8-8.252-10.667-13.439c-2.232-4.34-4.404-10.061-4.038-17.053
			c0.046-0.867,0.403-1.824,0.302-2.652c-0.065-0.532-1.399-1.547-1.808-1.989c-1.85-2.004-3.394-4.444-4.58-6.99
			c-1.583-3.398-2.631-7.864-1.868-13.078c0.99-6.764,3.856-11.534,7.352-15.849c1.09-1.345,2.377-3.071,3.737-3.978
			c1.178-0.786,5.44-1.734,5.664,0.784c0.071,0.825-0.492,1.424-1.085,2.048c-3.428,3.611-6.229,7.414-7.895,12.836
			C96.76,28.919,98.661,36.134,101.985,40.599z M113.674,49.939c2.408,0.969,5.975,2.191,9.101,1.025
			c5.927-2.215,5.554-15.626,1.267-19.043c-2.619-2.086-6.5-0.024-8.559,1.446c-4.029,2.88-7.285,7.311-8.559,12.475
			C108.979,47.569,110.991,48.857,113.674,49.939z"/>
	</g>
</g>
</svg>
