<?xml version="1.0" encoding="utf-8"?>
<!-- Generator: Adobe Illustrator 16.0.0, SVG Export Plug-In . SVG Version: 6.00 Build 0)  -->
<!DOCTYPE svg PUBLIC "-//W3C//DTD SVG 1.1//EN" "http://www.w3.org/Graphics/SVG/1.1/DTD/svg11.dtd">
<svg version="1.1" id="Layer_1" xmlns="http://www.w3.org/2000/svg" xmlns:xlink="http://www.w3.org/1999/xlink" x="0px" y="0px"
	 width="205px" height="53.333px" viewBox="0 0 205 53.333" enable-background="new 0 0 205 53.333" xml:space="preserve">
<path fill="#E3000B" d="M24.149,22.66l-4.662-12.552L14.919,22.66H24.149 M36.726,36.04h-7.434l-2.953-7.686H12.817l-2.788,7.686
	H2.784L15.959,2.217h7.221L36.726,36.04z"/>
<path fill="#E3000B" d="M47.199,16.518h5.047c3.276,0,5.324-0.134,6.143-0.409c0.811-0.275,1.449-0.757,1.913-1.434
	c0.457-0.677,0.693-1.52,0.693-2.536c0-1.142-0.306-2.055-0.913-2.756c-0.606-0.701-1.465-1.142-2.575-1.331
	c-0.551-0.07-2.213-0.109-4.985-0.109h-5.323V16.518 M40.363,36.04V2.217h14.38c3.614,0,6.237,0.308,7.875,0.913
	c1.638,0.607,2.953,1.687,3.937,3.237c0.985,1.559,1.473,3.331,1.473,5.331c0,2.536-0.748,4.639-2.237,6.292
	c-1.488,1.646-3.725,2.693-6.693,3.119c1.48,0.865,2.701,1.811,3.661,2.843c0.961,1.032,2.253,2.858,3.883,5.489l4.134,6.599H62.61
	l-4.938-7.363c-1.756-2.63-2.953-4.284-3.599-4.969c-0.645-0.685-1.33-1.15-2.055-1.41c-0.725-0.252-1.866-0.378-3.441-0.378h-1.378
	v14.12H40.363z"/>
<polyline fill="#E3000B" points="82.078,36.04 82.078,7.942 72.044,7.942 72.044,2.217 98.922,2.217 98.922,7.942 88.913,7.942 
	88.913,36.04 82.078,36.04 "/>
<polyline points="103.238,36.04 103.238,2.217 113.459,2.217 119.594,25.291 125.658,2.217 135.904,2.217 135.904,36.04 
	129.563,36.04 129.563,9.415 122.846,36.04 116.27,36.04 109.577,9.415 109.577,36.04 103.238,36.04 "/>
<polyline points="142.692,36.04 142.692,2.217 167.765,2.217 167.765,7.942 149.518,7.942 149.518,15.439 166.498,15.439 
	166.498,21.133 149.518,21.133 149.518,30.338 168.412,30.338 168.412,36.04 142.692,36.04 "/>
<path d="M181.058,21.298v9.04h6.315c2.465,0,4.023-0.062,4.686-0.204c1.017-0.181,1.844-0.638,2.481-1.347
	c0.637-0.716,0.96-1.677,0.96-2.874c0-1.016-0.252-1.874-0.74-2.583c-0.496-0.709-1.205-1.229-2.134-1.552
	c-0.929-0.323-2.953-0.48-6.056-0.48H181.058 M181.058,7.848v7.819h4.474c2.66,0,4.314-0.039,4.961-0.118
	c1.165-0.134,2.087-0.535,2.756-1.204c0.669-0.67,1-1.552,1-2.646c0-1.047-0.283-1.898-0.858-2.551
	c-0.583-0.654-1.44-1.048-2.575-1.182c-0.678-0.079-2.623-0.118-5.836-0.118H181.058z M174.222,2.217h13.521
	c2.678,0,4.678,0.11,5.993,0.338c1.315,0.222,2.488,0.687,3.527,1.395c1.04,0.709,1.898,1.646,2.591,2.827
	c0.693,1.174,1.04,2.497,1.04,3.954c0,1.583-0.426,3.038-1.275,4.362c-0.858,1.323-2.017,2.315-3.474,2.977
	c2.056,0.599,3.646,1.622,4.749,3.063c1.11,1.449,1.661,3.15,1.661,5.104c0,1.535-0.354,3.031-1.07,4.487
	c-0.717,1.449-1.693,2.615-2.93,3.481s-2.764,1.402-4.583,1.607c-1.134,0.117-3.883,0.196-8.238,0.228h-11.513V2.217z"/>
<polyline points="26.496,51.666 26.496,43.644 23.5,43.644 23.5,42.571 30.708,42.571 30.708,43.644 27.698,43.644 27.698,51.666 
	26.496,51.666 "/>
<polyline points="34.328,51.666 34.328,42.571 35.532,42.571 35.532,47.081 40.049,42.571 41.679,42.571 37.863,46.255 
	41.847,51.666 40.258,51.666 37.021,47.063 35.532,48.515 35.532,51.666 34.328,51.666 "/>
<path d="M46.914,47.931h3.085l-0.951-2.518c-0.288-0.765-0.504-1.395-0.644-1.887c-0.116,0.584-0.279,1.162-0.491,1.737
	L46.914,47.931 M44.29,51.666l3.494-9.095h1.296l3.723,9.095H51.43l-1.061-2.755h-3.804l-0.997,2.755H44.29z"/>
<polyline points="56.187,51.666 56.187,42.571 57.42,42.571 62.198,49.712 62.198,42.571 63.353,42.571 63.353,51.666 
	62.117,51.666 57.34,44.519 57.34,51.666 56.187,51.666 "/>
<rect x="68.017" y="42.57" width="1.203" height="9.096"/>
<polyline points="73.763,51.666 73.763,42.571 74.998,42.571 79.775,49.712 79.775,42.571 80.929,42.571 80.929,51.666 
	79.694,51.666 74.917,44.519 74.917,51.666 73.763,51.666 "/>
<path d="M87.95,51.666v-3.852l-3.505-5.243h1.464l1.793,2.742c0.331,0.513,0.638,1.024,0.924,1.539
	c0.273-0.477,0.603-1.013,0.993-1.607l1.762-2.674h1.401l-3.629,5.243v3.852H87.95"/>
<path d="M104.186,51.666v-9.095H106l2.151,6.439c0.198,0.6,0.345,1.048,0.434,1.347c0.104-0.33,0.265-0.817,0.485-1.459l2.177-6.327
	h1.62v9.095h-1.16v-7.613l-2.644,7.613h-1.086l-2.631-7.742v7.742H104.186"/>
<polyline points="117.269,51.666 117.269,42.571 123.844,42.571 123.844,43.644 118.472,43.644 118.472,46.429 123.503,46.429 
	123.503,47.496 118.472,47.496 118.472,50.592 124.056,50.592 124.056,51.666 117.269,51.666 "/>
<path d="M129.309,50.592h2.265c0.389,0,0.662-0.015,0.818-0.042c0.277-0.051,0.509-0.133,0.695-0.25
	c0.186-0.114,0.338-0.284,0.459-0.504c0.119-0.222,0.18-0.476,0.18-0.766c0-0.339-0.087-0.634-0.26-0.887
	c-0.174-0.249-0.415-0.425-0.725-0.526c-0.308-0.1-0.751-0.15-1.329-0.15h-2.104V50.592 M129.309,46.393h1.968
	c0.531,0,0.914-0.035,1.147-0.105c0.305-0.091,0.536-0.241,0.69-0.453s0.232-0.476,0.232-0.794c0-0.301-0.071-0.568-0.216-0.796
	c-0.146-0.231-0.354-0.388-0.62-0.473c-0.269-0.084-0.73-0.128-1.385-0.128h-1.817V46.393z M128.104,51.666v-9.095h3.413
	c0.695,0,1.252,0.093,1.671,0.274c0.423,0.185,0.75,0.469,0.987,0.852c0.237,0.382,0.358,0.782,0.358,1.201
	c0,0.388-0.106,0.754-0.318,1.097c-0.209,0.343-0.529,0.62-0.955,0.832c0.551,0.161,0.972,0.436,1.27,0.824
	c0.296,0.39,0.443,0.849,0.443,1.379c0,0.425-0.091,0.82-0.271,1.188c-0.181,0.366-0.402,0.648-0.667,0.848
	c-0.265,0.198-0.598,0.347-0.995,0.448c-0.398,0.102-0.887,0.152-1.467,0.152H128.104z"/>
<polyline points="139.014,51.666 139.014,42.571 140.219,42.571 140.219,50.592 144.699,50.592 144.699,51.666 139.014,51.666 "/>
<path d="M149.442,47.255c0,1.097,0.296,1.959,0.884,2.59c0.591,0.631,1.33,0.947,2.219,0.947c0.907,0,1.652-0.318,2.237-0.956
	c0.584-0.637,0.878-1.541,0.878-2.712c0-0.739-0.127-1.385-0.377-1.938c-0.249-0.552-0.616-0.979-1.097-1.284
	c-0.482-0.304-1.022-0.455-1.623-0.455c-0.853,0-1.586,0.292-2.199,0.878C149.75,44.909,149.442,45.887,149.442,47.255
	 M148.202,47.236c0-1.511,0.403-2.691,1.216-3.545c0.811-0.854,1.856-1.281,3.14-1.281c0.839,0,1.598,0.201,2.271,0.601
	c0.674,0.403,1.188,0.962,1.542,1.681c0.353,0.716,0.528,1.53,0.528,2.438c0,0.924-0.184,1.749-0.557,2.477
	c-0.372,0.728-0.899,1.278-1.582,1.653c-0.684,0.374-1.418,0.562-2.208,0.562c-0.857,0-1.622-0.206-2.296-0.621
	c-0.675-0.413-1.186-0.979-1.533-1.694C148.375,48.792,148.202,48.034,148.202,47.236z"/>
<path d="M162.475,51.666l-2.414-9.095h1.235l1.385,5.961c0.148,0.625,0.275,1.245,0.383,1.86c0.233-0.972,0.368-1.53,0.411-1.681
	l1.73-6.141h1.452l1.303,4.604c0.326,1.142,0.561,2.215,0.707,3.218c0.114-0.572,0.267-1.233,0.453-1.977l1.425-5.845h1.212
	l-2.495,9.095h-1.161l-1.916-6.929c-0.161-0.58-0.256-0.937-0.286-1.067c-0.095,0.417-0.184,0.773-0.267,1.067l-1.929,6.929H162.475
	"/>
<polyline points="175.34,51.666 175.34,42.571 181.916,42.571 181.916,43.644 176.543,43.644 176.543,46.429 181.575,46.429 
	181.575,47.496 176.543,47.496 176.543,50.592 182.127,50.592 182.127,51.666 175.34,51.666 "/>
</svg>
